<svg width="158" height="48" viewBox="0 0 158 48" fill="none" xmlns="http://www.w3.org/2000/svg">
<rect width="159" height="48" fill="#FF6B00"/>
<path d="M19.888 21.1921H22.3933C22.3571 18.9886 20.546 17.4673 17.7932 17.4673C15.0826 17.4673 13.0964 18.9645 13.1085 21.2102C13.1025 23.0334 14.3883 24.0778 16.4771 24.5788L17.8233 24.9169C19.1696 25.2429 19.9182 25.6293 19.9242 26.4624C19.9182 27.3679 19.0609 27.9837 17.7328 27.9837C16.3745 27.9837 15.3965 27.3558 15.312 26.1183H12.7825C12.8489 28.7926 14.7626 30.1751 17.763 30.1751C20.7814 30.1751 22.5563 28.7322 22.5623 26.4684C22.5563 24.4098 21.0048 23.3171 18.8557 22.8342L17.7449 22.5685C16.6703 22.321 15.7708 21.9226 15.7889 21.0352C15.7889 20.2383 16.4952 19.6527 17.775 19.6527C19.0247 19.6527 19.7914 20.2202 19.888 21.1921ZM29.0081 30.1811C31.3022 30.1811 32.8476 29.0643 33.2099 27.3438L30.8313 27.1868C30.5717 27.8931 29.9077 28.2614 29.0504 28.2614C27.7645 28.2614 26.9496 27.4102 26.9496 26.0277V26.0217H33.2642V25.3153C33.2642 22.1641 31.3565 20.6065 28.9055 20.6065C26.1768 20.6065 24.408 22.5444 24.408 25.4059C24.408 28.3459 26.1527 30.1811 29.0081 30.1811ZM26.9496 24.4279C27.0039 23.3714 27.8068 22.5263 28.9478 22.5263C30.0646 22.5263 30.8373 23.3232 30.8434 24.4279H26.9496ZM39.6783 30.1811C41.9723 30.1811 43.5178 29.0643 43.88 27.3438L41.5015 27.1868C41.2419 27.8931 40.5778 28.2614 39.7206 28.2614C38.4347 28.2614 37.6197 27.4102 37.6197 26.0277V26.0217H43.9343V25.3153C43.9343 22.1641 42.0267 20.6065 39.5757 20.6065C36.847 20.6065 35.0782 22.5444 35.0782 25.4059C35.0782 28.3459 36.8228 30.1811 39.6783 30.1811ZM37.6197 24.4279C37.674 23.3714 38.477 22.5263 39.6179 22.5263C40.7348 22.5263 41.5075 23.3232 41.5135 24.4279H37.6197ZM57.3225 21.1921H59.8278C59.7916 18.9886 57.9805 17.4673 55.2277 17.4673C52.5171 17.4673 50.531 18.9645 50.543 21.2102C50.537 23.0334 51.8229 24.0778 53.9116 24.5788L55.2579 24.9169C56.6041 25.2429 57.3527 25.6293 57.3587 26.4624C57.3527 27.3679 56.4954 27.9837 55.1673 27.9837C53.809 27.9837 52.831 27.3558 52.7465 26.1183H50.217C50.2834 28.7926 52.1972 30.1751 55.1975 30.1751C58.216 30.1751 59.9908 28.7322 59.9969 26.4684C59.9908 24.4098 58.4393 23.3171 56.2902 22.8342L55.1794 22.5685C54.1048 22.321 53.2053 21.9226 53.2234 21.0352C53.2234 20.2383 53.9298 19.6527 55.2096 19.6527C56.4592 19.6527 57.2259 20.2202 57.3225 21.1921ZM66.4065 30.1811C69.2197 30.1811 70.9704 28.2553 70.9704 25.3999C70.9704 22.5263 69.2197 20.6065 66.4065 20.6065C63.5932 20.6065 61.8425 22.5263 61.8425 25.3999C61.8425 28.2553 63.5932 30.1811 66.4065 30.1811ZM66.4185 28.1889C65.1206 28.1889 64.4565 26.9996 64.4565 25.3817C64.4565 23.7638 65.1206 22.5685 66.4185 22.5685C67.6923 22.5685 68.3564 23.7638 68.3564 25.3817C68.3564 26.9996 67.6923 28.1889 66.4185 28.1889ZM79.099 26.0518C79.105 27.2955 78.2538 27.9474 77.3302 27.9474C76.3582 27.9474 75.7304 27.2653 75.7243 26.1726V20.7273H73.1526V26.6314C73.1586 28.7987 74.4264 30.1207 76.2918 30.1207C77.6863 30.1207 78.6885 29.4023 79.105 28.3157H79.2016V30H81.6707V20.7273H79.099V26.0518ZM84.2378 30H86.8095V24.7539C86.8095 23.6129 87.6426 22.8281 88.7776 22.8281C89.1338 22.8281 89.6227 22.8885 89.8642 22.967V20.685C89.6348 20.6307 89.3149 20.5945 89.0553 20.5945C88.0169 20.5945 87.1657 21.1982 86.8276 22.3452H86.7311V20.7273H84.2378V30ZM95.4619 30.1811C97.931 30.1811 99.4824 28.7322 99.6032 26.6012H97.1763C97.0254 27.5913 96.3734 28.1467 95.492 28.1467C94.2907 28.1467 93.5119 27.1385 93.5119 25.3636C93.5119 23.6129 94.2967 22.6108 95.492 22.6108C96.4338 22.6108 97.0375 23.2326 97.1763 24.1562H99.6032C99.4945 22.0131 97.8706 20.6065 95.4498 20.6065C92.6366 20.6065 90.8979 22.5565 90.8979 25.3999C90.8979 28.2191 92.6064 30.1811 95.4619 30.1811ZM105.986 30.1811C108.28 30.1811 109.825 29.0643 110.187 27.3438L107.809 27.1868C107.549 27.8931 106.885 28.2614 106.028 28.2614C104.742 28.2614 103.927 27.4102 103.927 26.0277V26.0217H110.242V25.3153C110.242 22.1641 108.334 20.6065 105.883 20.6065C103.154 20.6065 101.385 22.5444 101.385 25.4059C101.385 28.3459 103.13 30.1811 105.986 30.1811ZM103.927 24.4279C103.981 23.3714 104.784 22.5263 105.925 22.5263C107.042 22.5263 107.815 23.3232 107.821 24.4279H103.927Z" fill="white"/>
<g clip-path="url(#clip0_48_831)">
<path d="M143.999 21.4611C143.999 20.3212 143.633 19.2504 142.934 18.3178C143.2 17.4197 143.267 16.2798 143.2 14.9672C143.167 14.4145 142.735 14 142.202 14C141.903 14 139.374 14.0345 137.91 15.3817C136.646 15.1399 135.315 15.1399 134.017 15.3817C132.587 14.0345 130.058 14 129.725 14C129.193 14 128.76 14.4145 128.727 14.9672C128.627 16.2798 128.727 17.4197 128.993 18.3178C128.295 19.285 127.929 20.3558 127.929 21.4611C127.929 23.8791 129.725 26.0553 132.454 27.0915C132.354 27.2988 132.287 27.5406 132.221 27.7824C129.326 27.4715 127.962 24.7427 127.895 24.639C127.662 24.1209 127.064 23.9136 126.564 24.19C126.065 24.4318 125.866 25.0535 126.132 25.5717C126.199 25.7444 128.028 29.4404 132.054 29.8549V32.9637C132.054 33.5509 132.487 34 133.052 34H138.875C139.441 34 139.873 33.5509 139.873 32.9637V28.8532C139.873 28.2314 139.74 27.6442 139.507 27.1261C142.202 26.0553 143.999 23.9136 143.999 21.4611Z" fill="white"/>
</g>
<defs>
<clipPath id="clip0_48_831">
<rect width="18" height="20" fill="white" transform="translate(126 14)"/>
</clipPath>
</defs>
</svg>
